<svg viewBox="0 0 256 256" xmlns="http://www.w3.org/2000/svg">
  <!-- noxed — four fields of color, a star in the negative space. -->
  <defs>
    <clipPath id="nx-squircle"><rect width="256" height="256" rx="58"/></clipPath>
  </defs>

  <g clip-path="url(#nx-squircle)">
    <path d="M0 0 L148 0 Q138 64 128 128 Q64 118 0 108 Z" fill="#A78BFA"/>
    <path d="M148 0 L256 0 L256 148 Q192 138 128 128 Q138 64 148 0 Z" fill="#6D28D9"/>
    <path d="M256 148 L256 256 L108 256 Q118 192 128 128 Q192 138 256 148 Z" fill="#312A7D"/>
    <path d="M108 256 L0 256 L0 108 Q64 118 128 128 Q118 192 108 256 Z" fill="#4C6EF5"/>
  </g>

  <path
    d="M128 44 C136 100 156 120 212 128 C156 136 136 156 128 212 C120 156 100 136 44 128 C100 120 120 100 128 44 Z"
    fill="#FFFFFF"
    transform="rotate(14 128 128)"
  />
</svg>
